<?xml version="1.0" standalone="no"?>
<!DOCTYPE svg PUBLIC "-//W3C//DTD SVG 20010904//EN"
 "http://www.w3.org/TR/2001/REC-SVG-20010904/DTD/svg10.dtd">
<svg version="1.0" xmlns="http://www.w3.org/2000/svg"
 width="1280.000000pt" height="1280.000000pt" viewBox="0 0 1280.000000 1280.000000"
 preserveAspectRatio="xMidYMid meet">
<metadata>
Created by potrace 1.14, written by Peter Selinger 2001-2017
</metadata>
<g transform="translate(0.000000,1280.000000) scale(0.100000,-0.100000)"
fill="#000000" stroke="none">
<path d="M5959 12795 c-3 -2 -45 -6 -94 -9 -50 -2 -90 -5 -90 -6 0 -1 -19 -3
-43 -5 -40 -4 -66 -7 -162 -20 -19 -2 -56 -7 -82 -10 -26 -2 -64 -8 -85 -11
-21 -4 -44 -7 -50 -7 -7 0 -13 -3 -13 -6 0 -4 -15 -7 -32 -8 -41 -2 -80 -8
-138 -23 -25 -6 -59 -13 -77 -15 -18 -3 -63 -12 -100 -21 -37 -9 -75 -17 -83
-19 -8 -2 -15 -4 -15 -5 0 -1 -15 -3 -33 -6 -18 -2 -42 -9 -52 -14 -11 -6 -23
-9 -27 -8 -4 1 -28 -5 -53 -12 -25 -8 -48 -14 -52 -16 -5 -1 -11 -3 -15 -4 -5
-1 -12 -3 -18 -4 -5 -1 -17 -5 -25 -8 -8 -4 -28 -10 -45 -14 -40 -10 -44 -11
-50 -14 -3 -1 -8 -3 -12 -4 -5 -1 -35 -10 -68 -21 -33 -10 -63 -18 -67 -17 -5
1 -8 -3 -8 -10 0 -6 -3 -9 -6 -5 -4 3 -21 0 -39 -8 -19 -7 -36 -11 -39 -7 -3
3 -6 0 -6 -7 0 -7 -4 -10 -8 -7 -4 2 -27 -4 -50 -14 -23 -11 -42 -16 -42 -12
0 4 -4 1 -9 -6 -4 -7 -18 -14 -29 -15 -12 -1 -22 -5 -22 -10 0 -4 -4 -6 -8 -3
-4 2 -21 -2 -37 -9 -46 -22 -89 -39 -100 -40 -5 0 -17 -5 -25 -10 -8 -5 -21
-10 -29 -12 -8 -1 -18 -8 -22 -15 -5 -7 -9 -10 -9 -5 0 4 -17 -1 -39 -12 -21
-11 -41 -17 -45 -14 -3 4 -6 1 -6 -5 0 -7 -5 -12 -11 -12 -5 0 -35 -11 -66
-25 -30 -14 -60 -27 -67 -28 -6 -1 -13 -5 -16 -8 -8 -9 -219 -111 -223 -107
-2 2 -11 -5 -21 -14 -10 -10 -24 -18 -32 -18 -8 0 -14 -4 -14 -10 0 -5 -9 -10
-20 -10 -11 0 -20 -4 -20 -10 0 -5 -11 -12 -25 -16 -14 -3 -25 -9 -25 -13 0
-3 -23 -17 -50 -30 -28 -14 -50 -29 -50 -34 0 -4 -4 -6 -8 -3 -5 3 -19 -4 -30
-15 -12 -10 -24 -19 -27 -19 -9 -1 -40 -13 -45 -19 -12 -14 -70 -51 -80 -51
-5 0 -10 -5 -10 -11 0 -6 -7 -9 -15 -5 -9 3 -15 0 -15 -9 0 -8 -6 -15 -14 -15
-7 0 -19 -7 -26 -15 -7 -8 -16 -12 -21 -9 -5 3 -9 0 -9 -6 0 -6 -10 -15 -22
-20 -23 -10 -119 -76 -128 -89 -3 -3 -22 -15 -42 -26 -20 -10 -35 -23 -32 -27
3 -4 -1 -8 -9 -8 -8 0 -26 -11 -41 -25 -15 -14 -30 -25 -34 -25 -5 0 -23 -16
-42 -35 -19 -19 -39 -35 -45 -35 -5 0 -24 -13 -41 -30 -18 -16 -34 -27 -37
-24 -3 3 -11 -4 -17 -16 -6 -12 -14 -19 -17 -16 -3 3 -15 -6 -25 -20 -11 -14
-22 -23 -24 -21 -4 4 -51 -37 -145 -125 -16 -14 -29 -24 -29 -22 0 3 -38 -33
-85 -79 -47 -46 -86 -83 -87 -82 -4 2 -241 -239 -239 -243 1 -2 -12 -15 -29
-30 -16 -14 -30 -32 -30 -40 0 -7 -4 -11 -9 -8 -5 3 -15 -4 -24 -17 -8 -12
-31 -39 -50 -59 -20 -21 -33 -38 -31 -38 3 0 -7 -13 -23 -29 -15 -16 -39 -43
-53 -60 -14 -17 -34 -41 -45 -54 -11 -13 -29 -36 -40 -51 -11 -16 -29 -37 -39
-47 -11 -11 -16 -19 -12 -19 4 0 -9 -16 -29 -37 -19 -20 -33 -38 -31 -40 2 -3
-3 -12 -12 -22 -10 -9 -26 -30 -37 -45 -11 -16 -28 -37 -37 -48 -10 -10 -18
-25 -18 -33 0 -8 -4 -15 -10 -15 -5 0 -16 -12 -24 -27 -12 -25 -24 -41 -66
-90 -5 -7 -10 -15 -10 -18 0 -3 -15 -27 -34 -54 -19 -27 -32 -52 -29 -55 4 -3
1 -6 -5 -6 -7 0 -12 -7 -12 -15 0 -8 -4 -15 -9 -15 -5 0 -13 -10 -17 -22 -3
-12 -15 -31 -25 -42 -11 -11 -19 -26 -19 -33 0 -7 -4 -13 -9 -13 -5 0 -11 -8
-15 -17 -3 -10 -10 -25 -15 -33 -27 -40 -102 -180 -101 -186 1 -4 -5 -11 -14
-16 -9 -5 -16 -18 -16 -28 0 -11 -5 -20 -12 -20 -6 0 -8 -3 -5 -7 4 -3 0 -15
-10 -25 -9 -10 -12 -18 -8 -18 4 0 1 -8 -8 -17 -8 -10 -17 -22 -18 -28 -3 -15
-43 -99 -50 -105 -5 -4 -17 -31 -24 -50 -1 -3 -8 -18 -15 -35 -7 -16 -13 -33
-12 -37 1 -5 -3 -8 -8 -8 -6 0 -10 -6 -10 -13 0 -8 -11 -34 -23 -60 -13 -25
-19 -43 -13 -40 6 4 4 -2 -6 -13 -21 -24 -48 -91 -40 -98 3 -3 0 -6 -7 -6 -7
0 -10 -4 -6 -9 3 -5 1 -12 -5 -16 -6 -4 -8 -11 -5 -16 4 -5 1 -9 -4 -9 -6 0
-10 -3 -9 -7 0 -5 -2 -17 -6 -28 -4 -11 -13 -33 -19 -50 -7 -16 -11 -33 -9
-37 1 -5 -2 -8 -8 -8 -6 0 -9 -3 -9 -7 1 -8 0 -12 -6 -30 -12 -36 -17 -53 -15
-59 1 -4 -3 -10 -9 -13 -6 -4 -13 -18 -15 -31 -2 -14 -5 -26 -7 -27 -1 -2 -2
-6 -3 -10 -1 -5 -4 -12 -7 -18 -4 -5 -10 -26 -14 -45 -4 -19 -11 -41 -15 -50
-5 -8 -14 -35 -21 -60 -7 -25 -15 -49 -18 -55 -3 -5 -6 -14 -8 -20 -7 -36 -12
-55 -23 -95 -7 -25 -13 -49 -14 -55 -1 -5 -4 -14 -8 -20 -3 -5 -13 -44 -22
-85 -10 -41 -21 -91 -27 -110 -13 -50 -21 -91 -23 -120 0 -14 -4 -27 -8 -30
-4 -3 -9 -24 -11 -47 -3 -23 -8 -47 -12 -53 -4 -6 -8 -27 -10 -48 -6 -47 -11
-88 -19 -129 -11 -60 -15 -88 -21 -133 -8 -65 -12 -99 -20 -150 -24 -171 -30
-305 -29 -765 0 -409 3 -534 19 -654 2 -18 5 -51 7 -72 1 -21 4 -39 7 -39 4 0
7 -19 8 -43 1 -53 10 -124 17 -157 4 -14 8 -41 10 -60 3 -19 5 -35 6 -35 3 0
10 -38 14 -75 2 -19 5 -35 6 -35 1 0 3 -13 5 -28 2 -16 11 -61 20 -100 9 -40
19 -81 21 -92 2 -11 6 -29 9 -40 2 -11 11 -51 20 -90 8 -38 19 -81 25 -95 5
-14 11 -34 13 -45 2 -11 6 -27 10 -35 3 -8 10 -37 17 -65 12 -50 21 -82 36
-120 4 -11 8 -25 10 -32 4 -21 26 -88 33 -98 3 -5 6 -15 7 -22 4 -23 27 -88
35 -99 5 -6 6 -13 3 -17 -3 -3 1 -18 9 -34 8 -15 25 -55 37 -88 12 -33 29 -75
37 -93 8 -18 16 -42 18 -54 3 -12 9 -26 15 -32 5 -5 10 -18 10 -28 0 -10 5
-18 10 -18 6 0 10 -11 10 -24 0 -13 5 -26 10 -28 6 -2 12 -12 14 -23 3 -11 11
-33 19 -50 24 -48 60 -130 59 -135 0 -3 8 -16 17 -30 18 -27 44 -83 41 -89 -1
-2 2 -7 7 -10 12 -9 63 -114 63 -128 0 -7 7 -13 16 -13 8 0 12 -4 9 -10 -3 -5
-1 -10 5 -10 6 0 9 -4 6 -9 -3 -4 7 -28 22 -52 16 -24 31 -51 35 -59 4 -8 18
-33 32 -55 14 -22 28 -47 32 -55 3 -8 37 -63 74 -122 37 -58 64 -110 61 -114
-4 -4 -2 -4 5 0 11 6 30 -29 25 -47 -1 -4 1 -6 5 -5 5 2 8 -1 8 -5 0 -5 8 -13
18 -18 9 -6 17 -16 17 -24 0 -7 3 -15 7 -17 13 -5 65 -78 56 -78 -4 0 -3 -4 3
-8 6 -4 30 -34 54 -67 24 -33 47 -62 52 -63 4 -2 6 -8 2 -13 -3 -5 2 -9 10 -9
9 0 15 -3 14 -8 -2 -4 7 -18 20 -32 12 -13 22 -30 22 -37 0 -8 5 -11 10 -8 5
3 10 1 10 -4 0 -10 19 -36 48 -67 7 -8 11 -14 8 -14 -2 0 14 -20 37 -45 49
-53 57 -62 80 -95 9 -13 17 -20 17 -15 0 6 8 -1 18 -15 25 -37 59 -76 128
-146 34 -35 59 -65 56 -68 -3 -4 2 -6 11 -6 9 0 17 -7 17 -16 0 -8 4 -12 10
-9 5 3 10 1 10 -5 0 -6 37 -47 82 -91 46 -43 113 -108 151 -144 37 -36 72 -65
77 -65 6 0 10 -7 10 -15 0 -8 5 -15 11 -15 7 0 22 -11 35 -26 13 -14 24 -22
24 -19 0 3 16 -9 35 -27 71 -68 94 -88 99 -88 3 0 14 -8 24 -17 11 -10 43 -36
72 -58 29 -22 58 -46 65 -52 8 -7 18 -13 23 -13 6 0 12 -7 16 -15 3 -8 12 -15
20 -15 7 0 16 -7 20 -15 3 -8 11 -15 18 -15 8 0 21 -8 30 -18 23 -24 46 -42
54 -42 3 0 24 -14 45 -31 21 -17 39 -27 39 -23 0 4 8 -2 18 -12 20 -23 128
-94 141 -94 5 0 11 -3 13 -7 3 -9 166 -113 175 -113 3 0 21 -11 40 -26 18 -14
33 -22 33 -19 0 4 13 -3 29 -14 16 -12 34 -21 40 -21 6 0 11 -4 11 -8 0 -4 16
-14 35 -21 19 -7 35 -17 35 -22 0 -5 9 -9 19 -9 11 0 21 -3 23 -7 3 -8 116
-68 127 -68 3 0 11 -4 18 -8 42 -26 122 -64 127 -59 3 3 6 1 6 -4 0 -10 69
-40 83 -36 4 1 7 -2 7 -8 0 -5 4 -10 10 -10 5 0 33 -11 62 -24 29 -13 55 -24
58 -23 3 1 19 -6 35 -15 61 -33 126 -58 135 -53 6 4 10 1 10 -4 0 -6 6 -11 13
-11 6 0 39 -11 72 -24 63 -26 95 -38 108 -41 4 -2 9 -4 12 -5 3 -1 8 -3 13 -4
4 -1 13 -5 20 -9 6 -5 12 -6 12 -2 0 3 13 -1 30 -10 16 -8 32 -15 35 -15 8 0
23 -4 50 -14 11 -4 31 -12 45 -16 14 -4 34 -11 45 -16 24 -8 31 -10 67 -17 15
-3 32 -8 38 -12 9 -6 22 -9 77 -21 12 -2 34 -9 48 -14 14 -5 25 -8 25 -5 0 2
16 -3 35 -11 19 -8 35 -12 35 -9 0 2 12 0 27 -6 15 -6 46 -13 68 -16 22 -3 48
-10 58 -15 10 -5 21 -7 24 -4 4 3 12 1 19 -4 6 -6 16 -10 20 -9 5 2 34 -3 64
-9 30 -7 66 -14 80 -16 14 -3 25 -5 25 -6 0 -1 11 -3 25 -4 28 -3 104 -16 135
-23 11 -2 35 -6 54 -8 19 -2 48 -6 65 -9 31 -5 111 -15 176 -21 19 -2 58 -7
85 -10 49 -6 101 -10 305 -22 214 -13 687 -6 875 12 33 3 83 8 110 10 28 2 68
7 90 10 22 2 59 6 82 7 24 2 43 5 43 8 0 3 17 6 38 7 43 2 117 10 117 13 0 1
9 3 20 5 11 2 54 9 95 17 41 7 83 12 93 12 9 -1 17 2 17 7 0 5 6 6 14 3 8 -3
17 -1 20 4 3 5 17 7 31 4 15 -2 25 0 25 8 0 7 8 9 19 5 11 -3 22 -1 26 5 3 6
10 8 14 6 4 -3 25 0 47 6 21 5 48 12 59 13 11 2 47 11 80 20 33 9 69 18 80 19
11 2 37 10 57 19 20 8 38 13 41 11 2 -3 17 0 33 7 16 6 40 13 54 16 14 2 27 8
28 14 2 5 8 7 12 4 5 -3 25 1 44 9 19 8 37 12 40 8 3 -3 6 1 6 8 0 7 3 11 6 7
4 -3 22 0 40 8 19 8 34 12 34 10 0 -2 20 4 45 15 25 11 47 20 50 20 10 1 43
13 130 47 50 19 98 37 109 39 10 2 29 10 42 19 13 8 24 13 24 10 0 -3 10 0 23
7 12 7 24 13 27 14 27 7 70 27 70 33 0 4 8 7 19 8 24 2 114 44 123 57 4 6 8 7
8 3 0 -4 10 -2 23 5 12 7 24 13 27 14 3 1 15 5 28 9 12 4 22 11 22 16 0 5 9 9
20 9 11 0 20 5 20 11 0 5 5 7 10 4 6 -3 10 -1 10 5 0 6 5 8 10 5 6 -3 10 -1
10 5 0 6 4 9 9 6 5 -4 11 -3 13 1 2 7 70 43 88 48 21 6 60 30 60 37 0 5 5 6
10 3 6 -3 10 -1 10 4 0 6 7 11 15 11 8 0 15 5 15 11 0 5 4 8 9 4 5 -3 17 2 25
11 9 8 16 13 16 9 0 -3 17 6 37 20 21 14 43 25 50 25 7 0 13 5 13 10 0 6 7 10
16 10 8 0 12 5 9 10 -4 6 -3 9 2 8 14 -4 53 13 53 23 0 6 5 7 10 4 6 -3 10 -2
10 3 0 5 14 15 30 22 17 7 30 16 30 20 0 5 14 13 30 19 17 5 30 15 30 20 0 6
6 11 14 11 7 0 19 7 26 15 7 9 15 13 18 10 3 -2 13 5 23 17 11 11 19 18 19 14
0 -8 73 45 78 57 2 4 10 7 18 7 8 0 17 6 20 14 3 8 16 17 30 20 13 4 24 11 24
16 0 6 7 10 15 10 8 0 15 7 15 16 0 8 4 13 10 9 5 -3 18 3 30 15 11 11 22 20
25 20 5 0 20 12 71 58 14 12 29 22 34 22 6 0 10 5 10 12 0 6 3 9 6 5 3 -3 16
5 29 19 12 13 25 24 29 24 6 0 15 7 73 61 15 14 40 33 55 43 15 10 26 22 23
26 -3 4 9 13 25 20 16 7 27 16 24 21 -3 5 -1 9 5 9 5 0 29 18 53 39 24 22 53
48 66 59 12 11 22 25 22 32 0 7 3 11 6 7 4 -3 42 29 85 72 44 43 79 76 79 75
0 -2 11 7 23 19 13 12 23 24 23 27 -1 3 40 47 90 98 50 50 89 92 88 92 -2 0
17 21 41 47 25 27 45 54 45 62 0 8 3 12 6 8 7 -7 58 50 67 76 4 10 11 16 16
12 5 -3 12 3 15 12 3 10 19 32 36 50 16 18 30 36 30 42 0 5 8 15 18 20 9 6 14
11 10 11 -4 0 3 11 15 24 45 48 72 81 74 89 0 5 12 21 26 37 14 15 23 31 20
34 -3 3 2 8 11 12 9 3 16 12 16 20 0 8 5 14 10 14 6 0 10 5 10 11 0 10 15 31
61 87 5 7 7 17 3 24 -4 6 -3 8 3 5 6 -4 22 11 37 33 14 22 23 40 19 40 -5 0 0
5 10 11 9 5 17 16 17 23 0 7 8 21 18 32 21 24 36 48 58 92 9 17 21 32 27 32 6
0 8 3 4 6 -3 4 8 27 24 51 17 24 29 47 26 50 -3 2 3 13 14 24 11 11 17 24 14
28 -2 5 2 11 10 15 8 3 15 12 15 21 0 8 5 15 12 15 6 0 8 3 5 6 -4 4 3 20 14
35 11 16 18 29 14 29 -3 0 3 10 14 22 11 11 18 25 15 30 -3 4 0 8 5 8 6 0 11
3 10 8 -2 15 14 52 22 52 5 0 9 9 9 20 0 11 5 20 10 20 6 0 10 9 10 20 0 11 3
20 8 20 8 0 48 91 44 103 -1 5 2 6 8 2 6 -4 13 7 16 24 4 17 11 31 16 31 5 0
6 5 2 11 -3 6 -1 15 5 19 7 4 14 13 15 21 2 8 9 28 16 44 7 17 13 33 12 38 -1
4 2 7 8 7 6 0 9 3 8 8 -1 7 6 27 37 97 23 52 21 45 30 83 4 18 12 35 16 38 5
3 7 10 4 15 -4 5 -2 9 3 9 5 0 9 6 9 13 0 6 8 29 17 50 9 20 14 37 10 37 -3 0
2 7 11 16 9 10 14 25 12 35 -3 10 -1 19 4 21 5 2 12 16 15 32 3 16 8 34 12 40
4 6 7 13 8 16 5 29 19 67 27 78 5 6 7 12 4 12 -2 0 8 36 23 80 15 44 23 77 16
73 -7 -4 -6 -1 1 8 7 9 15 26 17 40 3 13 5 25 7 27 2 2 2 2 13 52 5 19 11 40
14 45 7 12 12 31 15 62 1 13 5 23 9 23 3 0 5 11 3 25 -1 14 1 25 4 25 4 0 8 8
9 18 2 20 10 56 12 60 2 1 3 11 4 21 0 11 4 23 9 27 12 12 8 26 -5 18 -10 -6
-10 -4 0 8 13 17 24 57 25 93 1 11 6 23 11 27 7 5 5 8 -4 8 -11 0 -12 2 -3 8
7 4 13 23 14 42 2 19 7 43 12 54 7 14 6 17 -5 10 -10 -6 -11 -5 -1 7 7 9 15
33 18 55 2 21 7 55 10 74 4 19 8 50 9 68 2 17 6 35 9 39 4 3 2 12 -4 20 -7 7
-7 13 -2 13 6 0 11 12 11 28 1 15 4 45 7 67 3 22 7 66 9 97 3 32 7 62 11 68 3
5 0 10 -7 10 -10 0 -10 2 -1 8 9 6 11 140 9 567 -2 308 -6 578 -9 600 -4 22
-7 57 -8 78 -1 20 -5 37 -9 37 -3 0 -5 18 -3 41 2 22 -1 38 -5 35 -4 -3 -7 7
-6 22 1 15 -2 52 -7 82 -5 30 -11 71 -13 90 -6 48 -23 135 -26 135 -2 0 -10
73 -11 98 0 9 -4 17 -9 17 -4 0 -6 9 -3 20 3 12 0 20 -6 20 -7 0 -10 4 -7 8 3
5 -1 34 -8 65 -7 31 -11 59 -8 62 3 3 0 5 -6 5 -6 0 -9 7 -6 15 3 8 2 20 -2
27 -5 7 -9 20 -9 28 0 8 -4 21 -8 28 -5 6 -6 12 -3 12 3 0 1 11 -4 25 -5 14
-12 36 -14 48 -6 28 -12 48 -32 117 -9 30 -17 62 -18 70 -1 9 -5 20 -8 25 -3
6 -9 26 -13 45 -4 19 -11 41 -16 50 -7 13 -70 201 -75 223 -1 4 -3 9 -4 12 -1
3 -3 8 -5 13 -2 7 -20 54 -32 82 -3 8 -7 18 -8 23 -2 4 -4 10 -5 15 -1 4 -2
10 -1 15 0 4 -3 7 -9 7 -6 0 -9 3 -9 8 1 4 0 10 -1 15 -1 4 -3 10 -5 15 -5 17
-17 48 -26 64 -5 10 -9 25 -9 33 0 8 -4 15 -10 15 -5 0 -10 8 -10 18 0 10 -5
23 -12 30 -7 7 -9 12 -6 12 4 0 -7 28 -24 63 -18 34 -33 68 -34 76 -2 8 -8 17
-14 21 -7 4 -11 10 -11 14 3 22 -1 36 -12 48 -7 7 -14 16 -15 21 -3 16 -77
162 -84 165 -5 2 -8 10 -8 18 0 14 -19 54 -31 64 -3 3 -12 20 -20 38 -8 17
-17 32 -21 32 -5 0 -8 9 -8 20 0 11 -4 20 -9 20 -5 0 -12 8 -15 18 -3 9 -12
26 -19 37 -6 12 -32 55 -56 98 -25 42 -49 77 -53 77 -5 0 -6 5 -3 10 3 6 -1
13 -9 16 -9 3 -14 9 -11 14 2 4 -4 16 -15 27 -10 12 -16 24 -13 27 4 3 1 6 -5
6 -7 0 -12 5 -12 11 0 12 -59 100 -75 111 -5 4 -6 8 -1 8 5 0 -3 11 -18 25
-14 13 -26 28 -26 32 0 5 -7 16 -15 26 -8 9 -13 17 -10 17 3 0 -3 9 -12 19
-33 37 -43 50 -43 61 0 5 -4 10 -8 10 -4 0 -16 14 -26 30 -9 17 -29 42 -42 55
-14 14 -21 25 -17 25 4 0 0 5 -9 11 -10 5 -18 16 -18 24 0 7 -4 15 -8 17 -4 2
-23 23 -42 48 -19 24 -39 50 -45 56 -5 7 -28 33 -50 59 -22 26 -48 55 -57 63
-10 9 -18 22 -18 30 0 7 -4 10 -10 7 -5 -3 -10 -1 -10 5 0 6 -12 24 -28 39
-15 15 -40 44 -56 64 -16 20 -34 34 -39 30 -6 -4 -7 -1 -3 6 5 8 0 14 -13 18
-11 3 -19 9 -16 13 2 4 -8 18 -23 32 -15 14 -49 49 -76 77 -27 28 -52 51 -57
51 -4 0 -11 9 -14 20 -3 11 -10 20 -14 20 -5 0 -42 33 -83 73 -75 73 -142 133
-218 197 -23 19 -55 47 -70 63 -16 15 -31 27 -35 27 -6 0 -8 1 -75 60 -24 22
-47 40 -51 40 -4 0 -23 14 -41 30 -18 17 -35 30 -39 30 -4 0 -21 14 -39 30
-18 17 -39 30 -47 30 -8 0 -11 5 -8 10 5 9 -1 12 -21 9 -3 0 -14 9 -23 20 -10
12 -21 21 -25 21 -7 0 -23 12 -57 43 -10 9 -19 14 -19 10 -1 -5 -9 2 -20 15
-11 13 -23 21 -28 18 -5 -3 -15 4 -22 15 -8 10 -18 19 -23 19 -5 0 -28 14 -52
30 -24 17 -48 30 -54 30 -6 0 -11 3 -11 8 0 4 -17 16 -37 27 -21 11 -40 22
-43 26 -3 3 -21 14 -40 25 -19 10 -37 21 -40 24 -3 3 -18 12 -35 20 -16 8 -38
21 -47 29 -10 8 -18 10 -18 5 0 -5 -4 -4 -8 1 -9 13 -55 40 -104 63 -21 9 -38
20 -38 24 0 5 -9 8 -20 8 -11 0 -20 4 -20 8 0 5 -18 15 -40 22 -22 7 -40 17
-40 22 0 4 -4 8 -9 8 -5 0 -66 27 -136 61 -69 33 -131 62 -138 63 -7 2 -34 14
-62 27 -27 13 -53 22 -57 21 -5 -1 -8 2 -8 8 0 6 -3 9 -7 8 -5 -1 -18 3 -30
10 -13 7 -23 10 -23 6 0 -3 -6 -1 -13 5 -8 6 -17 8 -20 4 -4 -3 -7 0 -7 7 0 7
-3 10 -6 7 -4 -3 -16 -1 -28 5 -11 7 -24 13 -28 14 -5 1 -10 3 -13 4 -3 1 -9
4 -15 5 -5 1 -13 4 -17 5 -5 1 -11 2 -15 1 -5 0 -8 3 -8 9 0 5 -9 10 -19 10
-11 0 -23 5 -27 11 -3 6 -14 9 -24 6 -11 -3 -21 0 -23 7 -3 6 -17 12 -32 14
-16 1 -33 6 -40 12 -6 5 -20 11 -31 13 -10 2 -27 7 -36 11 -9 4 -23 9 -32 10
-8 1 -19 5 -22 9 -4 4 -18 7 -31 7 -12 0 -23 5 -23 12 0 6 -3 9 -6 5 -3 -3
-29 2 -57 10 -29 9 -58 16 -64 16 -7 0 -13 3 -13 6 0 4 -12 8 -26 9 -15 1 -32
6 -38 11 -6 4 -23 8 -38 7 -16 -1 -28 2 -28 7 0 4 -4 6 -9 3 -5 -4 -11 -2 -13
4 -1 5 -15 11 -30 12 -16 1 -28 6 -28 10 0 4 -7 5 -15 2 -8 -4 -21 -2 -28 3
-6 5 -22 8 -34 7 -13 0 -23 2 -23 5 0 4 -10 8 -22 9 -26 2 -63 10 -63 12 0 1
-13 4 -65 14 -14 2 -25 5 -25 6 0 3 -40 10 -75 14 -19 2 -42 6 -50 9 -8 3 -33
9 -55 12 -22 3 -52 8 -67 10 -16 3 -40 7 -55 9 -16 2 -46 6 -68 10 -103 15
-143 20 -247 29 -10 1 -18 5 -18 9 0 5 -8 4 -19 -1 -10 -6 -21 -8 -24 -5 -3 3
-22 8 -44 11 -49 6 -1008 14 -1014 8z"/>
</g>
</svg>
